<?xml version="1.0" standalone="no"?>
<!DOCTYPE svg PUBLIC "-//W3C//DTD SVG 20010904//EN"
 "http://www.w3.org/TR/2001/REC-SVG-20010904/DTD/svg10.dtd">
<svg version="1.0" xmlns="http://www.w3.org/2000/svg"
 width="2202.000000pt" height="1653.000000pt" viewBox="0 0 2202.000000 1653.000000"
 preserveAspectRatio="xMidYMid meet">
<metadata>
Created by potrace 1.10, written by Peter Selinger 2001-2011
</metadata>
<g transform="translate(0.000000,1653.000000) scale(0.100000,-0.100000)"
fill="#000000" stroke="none">
<path d="M2270 16511 c0 -11 -11 -41 -24 -68 -13 -26 -49 -100 -79 -163 -92
-195 -137 -291 -187 -395 -97 -202 -226 -475 -287 -605 -20 -41 -62 -131 -95
-200 -33 -69 -78 -163 -100 -210 -22 -47 -60 -125 -83 -175 -24 -49 -68 -142
-98 -205 -30 -63 -74 -155 -97 -205 -23 -49 -66 -139 -95 -200 -29 -60 -68
-144 -88 -185 -19 -41 -65 -138 -102 -215 -37 -77 -83 -174 -102 -215 -20 -41
-59 -124 -88 -185 -29 -60 -72 -150 -95 -200 -23 -49 -68 -144 -100 -210 -32
-66 -72 -151 -90 -190 -18 -38 -59 -126 -92 -195 -33 -69 -78 -163 -100 -210
-22 -47 -64 -134 -93 -195 -116 -242 -135 -289 -164 -401 -6 -23 -11 -108 -11
-190 1 -208 15 -262 136 -512 42 -86 108 -222 146 -302 39 -80 108 -221 153
-315 91 -188 192 -396 310 -640 89 -184 182 -377 300 -620 45 -93 111 -228
145 -300 34 -71 97 -202 140 -290 190 -391 266 -548 317 -655 31 -63 93 -191
138 -285 46 -93 113 -233 150 -310 115 -240 244 -505 307 -632 l61 -123 5301
0 c4195 1 5310 3 5346 13 104 29 188 96 242 192 l33 60 0 4750 0 4750 -28 50
c-41 73 -95 127 -172 172 -11 6 -19 16 -17 22 1 8 -1488 11 -5368 11 -5287 0
-5370 0 -5370 -19z"/>
</g>
</svg>
